<?xml version="1.0" encoding="UTF-8" standalone="no"?>
<!-- Generator: Adobe Illustrator 16.0.4, SVG Export Plug-In . SVG Version: 6.00 Build 0)  -->

<svg
   xmlns:dc="http://purl.org/dc/elements/1.1/"
   xmlns:cc="http://creativecommons.org/ns#"
   xmlns:rdf="http://www.w3.org/1999/02/22-rdf-syntax-ns#"
   xmlns:svg="http://www.w3.org/2000/svg"
   xmlns="http://www.w3.org/2000/svg"
   xmlns:sodipodi="http://sodipodi.sourceforge.net/DTD/sodipodi-0.dtd"
   xmlns:inkscape="http://www.inkscape.org/namespaces/inkscape"
   version="1.1"
   id="Layer_1"
   x="0px"
   y="0px"
   width="408.47455"
   height="337.43408"
   viewBox="0 0 408.47455 337.43408"
   enable-background="new 0 0 2000 1000"
   xml:space="preserve"
   inkscape:version="0.48.4 r9939"
   sodipodi:docname="omgrun.svg"><metadata
     id="metadata3132"><rdf:RDF><cc:Work
         rdf:about=""><dc:format>image/svg+xml</dc:format><dc:type
           rdf:resource="http://purl.org/dc/dcmitype/StillImage" /></cc:Work></rdf:RDF></metadata><defs
     id="defs3130" /><sodipodi:namedview
     pagecolor="#ffffff"
     bordercolor="#666666"
     borderopacity="1"
     objecttolerance="10"
     gridtolerance="10"
     guidetolerance="10"
     inkscape:pageopacity="0"
     inkscape:pageshadow="2"
     inkscape:window-width="1598"
     inkscape:window-height="881"
     id="namedview3128"
     showgrid="false"
     showguides="true"
     inkscape:guide-bbox="true"
     fit-margin-top="0"
     fit-margin-left="0"
     fit-margin-right="0"
     fit-margin-bottom="0"
     inkscape:zoom="0.713"
     inkscape:cx="221"
     inkscape:cy="169.81276"
     inkscape:window-x="0"
     inkscape:window-y="17"
     inkscape:window-maximized="0"
     inkscape:current-layer="Layer_1"><inkscape:grid
       type="xygrid"
       id="grid3134"
       empspacing="5"
       visible="true"
       enabled="true"
       snapvisiblegridlinesonly="true"
       originx="-779px"
       originy="-330.18724px" /></sodipodi:namedview><path
     d="m 205,60.021329 c 0,0 19.3,-73.9 34.7,-57.6999996 15.4,16.2999996 10.2,66.6999996 10.2,66.6999996 0,0 -25,-23.6 -44.9,-9 z"
     id="path3076"
     inkscape:connector-curvature="0"
     style="fill:#e5007e" /><path
     d="m 159,83.421329 c 0,0 -14.6,-92.4999996 10.7,-81.7999996 C 195,12.321329 214,71.621329 214,71.621329 c 0,0 -39.8,-14.5 -55,11.8 z"
     id="path3078"
     inkscape:connector-curvature="0"
     style="fill:#e5007e" /><path
     d="m 246.1,63.121329 c 0,0 43.7,-35.7 45.8,-19.3 2.1,16.4 -23,44.3 -23,44.3 0,0 -4.6,-25.1 -22.8,-25 z"
     id="path3080"
     inkscape:connector-curvature="0"
     style="fill:#e5007e" /><path
     d="m 268,84.021329 c 0,0 56,-7.2 49.1,7.8 -6.9,15.100001 -42.9,25.500001 -42.9,25.500001 0,0 9.3,-23.700001 -6.2,-33.300001 z"
     id="path3082"
     inkscape:connector-curvature="0"
     style="fill:#e5007e" /><path
     d="m 281.9,119.92133 c 0,0 41.9,3.8 34.4,13.6 -7.4,9.8 -35.3,11.6 -35.3,11.6 0,0 10.6,-15.7 0.9,-25.2 z"
     id="path3084"
     inkscape:connector-curvature="0"
     style="fill:#e5007e" /><path
     d="m 289.5,149.52133 c 0,0 28.9,2.6 23.8,9.4 -5.1,6.8 -24.4,8 -24.4,8 0,0 7.3,-10.8 0.6,-17.4 z"
     id="path3086"
     inkscape:connector-curvature="0"
     style="fill:#e5007e" /><path
     d="m 293.9,150.02133 c 2.3,3.1 3.1,7.1 3,11 -0.1,1.7 -0.4,3.4 -0.9,5 -4.1,0.7 -7.2,0.9 -7.2,0.9 0,0 7.3,-10.9 0.6,-17.4 0.1,0 1.9,0.2 4.5,0.5 z"
     id="path3088"
     inkscape:connector-curvature="0"
     style="opacity:0.18999999" /><polygon
     points="1003.4,508.8 1004.9,482.6 1027.4,502.7 "
     id="polygon3090"
     style="fill:#848380"
     transform="translate(-779,-332.37867)" /><polygon
     points="977.6,514.3 979.1,488.1 1001.7,508.2 "
     id="polygon3092"
     style="fill:#848380"
     transform="translate(-779,-332.37867)" /><polygon
     points="950.9,515.2 960.6,490.8 975.7,516.9 "
     id="polygon3094"
     style="fill:#848380"
     transform="translate(-779,-332.37867)" /><path
     d="m 287.2,308.72133 c 0,0 67.2,40.5 68.1,25.3 0.8,-15.1 -30.3,-43.5 -33.9,-45.9 -3.7,-2.4 -34.2,20.6 -34.2,20.6 z"
     id="path3096"
     inkscape:connector-curvature="0"
     style="fill:#29235c" /><path
     d="m 319.6,285.82133 c 0,0 67.2,40.5 68.1,25.3 0.8,-15.1 -30.3,-43.5 -33.9,-45.9 -3.7,-2.4 -34.2,20.6 -34.2,20.6 z"
     id="path3098"
     inkscape:connector-curvature="0"
     style="fill:#29235c" /><path
     d="m 230.1,233.82133 c 0,0 -45.7,63.8 -52.4,50.2 -6.7,-13.6 10.6,-52 12.9,-55.6 2.4,-3.6 39.5,5.4 39.5,5.4 z"
     id="path3100"
     inkscape:connector-curvature="0"
     style="fill:#29235c" /><polygon
     points="1012.2,439 1001.2,473.3 978.1,438.8 "
     id="polygon3102"
     style="fill:#848380"
     transform="translate(-779,-332.37867)" /><polygon
     points="978.2,442.4 974,483.6 942.8,453.9 "
     id="polygon3104"
     style="fill:#848380"
     transform="translate(-779,-332.37867)" /><polygon
     points="940.6,449.9 943.9,492.9 909.1,470.3 "
     id="polygon3106"
     style="fill:#848380"
     transform="translate(-779,-332.37867)" /><polygon
     points="908.2,466.9 915.8,497.4 884.7,482 "
     id="polygon3108"
     style="fill:#848380"
     transform="translate(-779,-332.37867)" /><path
     d="m 101.1,158.52133 c 0,0 16.2,-62.300001 79.2,-93.600001 63.1,-31.3 98.1,2.7 105.5,53.800001 7.3,51.1 97,166.9 119.1,55.6 0,0 36.2,94.9 -121.8,145.2 0,0 -54.7,25 -107.3,-107.7 0,0 -9.2,-22.8 -15.2,-22.8 -6,0 3.6,-12.8 13.9,-11.3 10.3,1.5 92.5,9.9 70.5,-54.6 -9.9,-29.300001 -69.5,-10.2 -143.9,35.4 z"
     id="path3110"
     inkscape:connector-curvature="0"
     style="fill:#29235c" /><path
     d="m 145.8,72.521329 c 10.8,6.4 14,20 7.2,30.400001 -6.9,10.5 -21.2,13.8 -32,7.4 -10.8,-6.4 -14,-20.000001 -7.2,-30.400001 6.9,-10.4 21.2,-13.7 32,-7.4 z"
     id="path3112"
     inkscape:connector-curvature="0"
     style="fill:#ffffff" /><path
     d="m 133.2,90.521329 c 4.6,2.7 5.9,8.5 3,12.900001 -2.9,4.4 -9,5.8 -13.6,3.1 -4.6,-2.7 -5.9,-8.500001 -3,-12.900001 3,-4.3 9,-5.7 13.6,-3.1 z"
     id="path3114"
     inkscape:connector-curvature="0"
     style="fill:#1d1d1b" /><path
     d="m 178.8,43.721329 c 15.2,8.9 19.6,28 10,42.6 -9.6,14.600001 -29.7,19.300001 -44.9,10.4 -15.2,-8.9 -19.6,-28 -10,-42.6 9.7,-14.6 29.8,-19.3 44.9,-10.4 z"
     id="path3116"
     inkscape:connector-curvature="0"
     style="fill:#ffffff" /><path
     d="m 166.5,70.021329 c 6.4,3.8 8.3,11.9 4.2,18.1 -4.1,6.2 -12.6,8.2 -19,4.4 -6.4,-3.8 -8.3,-11.9 -4.2,-18.1 4.1,-6.2 12.6,-8.2 19,-4.4 z"
     id="path3118"
     inkscape:connector-curvature="0"
     style="fill:#1d1d1b" /><path
     d="m 288.7,202.52133 c 0,0 74.6,-9.7 64.8,-21.2 -9.9,-11.5 -51.6,-13.9 -55.9,-13.2 -4.3,0.8 -8.9,34.4 -8.9,34.4 z"
     id="path3120"
     inkscape:connector-curvature="0"
     style="fill:#29235c" /><rect
     x="0"
     y="189.62132"
     width="128"
     height="31"
     id="rect3122"
     style="opacity:0.6" /><g
     id="g3124"
     transform="translate(-779,-332.37867)"><text
       transform="translate(787,546)"
       font-size="20"
       id="text3126"
       style="font-size:20px;fill:#ffffff;font-family:Monaco">OMG! Run!</text>
</g></svg>